<?xml version="1.0" standalone="no"?>
<!DOCTYPE svg PUBLIC "-//W3C//DTD SVG 20010904//EN"
 "http://www.w3.org/TR/2001/REC-SVG-20010904/DTD/svg10.dtd">
<svg version="1.0" xmlns="http://www.w3.org/2000/svg"
 width="100" height="52" viewBox="0 0 225.000000 225.000000"
 preserveAspectRatio="xMidYMid meet">

<g transform="translate(0.000000,225.000000) scale(0.100000,-0.100000)"
fill="#000000" stroke="none">
<path d="M1040 1658 c-25 -13 -55 -38 -67 -56 -20 -31 -22 -32 -32 -14 -20 37
-105 53 -156 30 -27 -12 -55 -54 -55 -82 0 -13 -10 -15 -57 -10 -168 16 -403
-89 -464 -207 -28 -56 -25 -95 12 -132 29 -29 30 -32 13 -44 -17 -12 -17 -14
2 -27 18 -14 18 -15 -8 -36 -87 -68 -11 -209 155 -285 102 -47 150 -58 254
-59 65 -1 93 -5 93 -13 0 -26 25 -65 51 -79 54 -28 147 -9 163 33 6 14 10 12
25 -14 29 -47 77 -76 136 -81 72 -6 118 12 161 62 l37 41 28 -27 c60 -60 189
-19 189 60 0 18 6 19 68 14 121 -8 306 53 390 129 55 50 82 97 82 145 0 35 -5
47 -31 69 -30 25 -31 26 -13 40 19 15 19 15 0 30 -18 14 -17 15 13 40 43 37
43 93 0 158 -72 109 -309 203 -461 183 -46 -6 -48 -6 -48 18 0 68 -97 107
-174 71 -20 -10 -36 -24 -36 -31 0 -8 -4 -14 -10 -14 -5 0 -10 6 -10 13 0 7
-15 27 -32 44 -61 57 -144 68 -218 31z m161 -73 c24 -9 53 -25 65 -36 19 -18
23 -18 50 -4 59 30 149 10 181 -42 17 -26 23 -28 91 -30 76 -2 106 -9 202 -45
74 -28 161 -94 153 -116 -3 -9 -2 -14 2 -9 5 4 17 -5 27 -20 23 -35 24 -56 1
-23 -9 14 -24 30 -32 36 -8 6 -11 16 -7 22 3 6 2 13 -4 17 -5 3 -10 1 -10 -6
0 -14 -7 -10 -11 6 -4 16 -23 33 -31 29 -3 -2 -28 7 -54 21 -43 23 -91 39
-154 52 -14 3 -62 6 -107 7 -80 1 -82 1 -87 28 -7 36 -56 61 -105 55 -48 -6
-68 -15 -75 -34 -5 -12 -10 -10 -27 11 -64 82 -199 87 -276 10 l-27 -27 -20
24 c-16 19 -30 24 -62 23 -23 -1 -47 -5 -54 -9 -9 -5 -11 -4 -6 3 4 7 2 12 -3
12 -6 0 -11 -6 -11 -14 0 -8 -6 -16 -14 -19 -21 -8 -13 23 9 36 45 25 165 12
148 -16 -4 -7 10 1 32 17 72 55 139 68 216 41z m-438 -92 c-5 -12 -3 -14 7 -8
9 5 11 4 6 -4 -4 -6 -11 -9 -16 -6 -5 3 -11 1 -15 -5 -3 -5 -10 -10 -15 -10
-5 0 1 11 13 25 26 29 28 30 20 8z m-98 -33 c8 -13 -5 -13 -25 0 -13 8 -13 10
2 10 9 0 20 -4 23 -10z m42 4 c-3 -3 -12 -4 -19 -1 -8 3 -5 6 6 6 11 1 17 -2
13 -5z m-111 -15 c3 -5 -8 -9 -25 -9 -16 0 -33 -4 -36 -10 -3 -5 -13 -10 -21
-10 -26 0 -120 -51 -169 -91 -26 -22 -45 -39 -42 -39 3 0 -1 -16 -9 -35 -13
-31 -13 -39 0 -64 9 -16 23 -32 33 -35 17 -7 17 -8 -1 -18 -19 -11 -19 -11 0
-25 18 -13 18 -15 1 -24 -9 -6 -23 -22 -31 -37 -17 -35 -6 -76 34 -117 17 -17
28 -34 25 -38 -3 -4 -2 -5 1 -2 13 9 47 -16 36 -27 -13 -13 -65 20 -55 35 3 5
1 7 -4 4 -20 -12 -73 72 -73 115 0 13 7 36 15 52 9 16 14 35 11 43 -3 7 -1 15
5 19 7 4 5 12 -5 23 -43 48 -27 122 39 184 46 43 102 77 90 55 -3 -7 -1 -6 7
3 15 19 113 57 145 57 13 0 26 -4 29 -9z m444 -11 c0 -4 -4 -8 -9 -8 -6 0 -12
4 -15 8 -3 5 1 9 9 9 8 0 15 -4 15 -9z m80 2 c0 -5 -4 -10 -9 -10 -6 0 -13 5
-16 10 -3 6 1 10 9 10 9 0 16 -4 16 -10z m-120 -56 c0 -3 -7 -1 -15 6 -8 7
-15 17 -15 22 0 5 7 3 15 -6 8 -8 15 -18 15 -22z m80 17 c-5 -11 -10 -22 -10
-24 0 -6 68 17 76 26 11 10 24 8 24 -3 0 -5 -6 -9 -12 -7 -8 1 -13 -9 -14 -23
-1 -39 -3 -43 -29 -74 -14 -16 -25 -35 -25 -42 0 -7 -6 -15 -12 -17 -8 -3 -5
-6 5 -6 13 -1 18 -8 17 -23 -1 -13 -2 -89 -1 -170 l1 -148 25 0 c16 0 25 -6
25 -15 0 -16 -7 -17 -90 -15 -31 1 -67 -3 -82 -9 -21 -8 -28 -7 -32 5 -10 27
-7 33 22 36 l27 3 3 120 c3 146 -1 167 -31 163 -18 -2 -22 2 -22 22 0 21 6 26
40 31 22 3 30 7 18 8 -12 0 -25 7 -30 14 -10 16 -14 41 -5 32 4 -4 7 -12 7
-18 0 -6 15 -13 33 -14 17 -2 32 2 32 7 0 6 -8 10 -18 10 -11 0 -27 9 -37 20
-15 17 -16 20 -3 15 13 -5 16 0 13 27 -2 21 4 41 15 56 24 29 30 28 30 -5 l0
-28 16 33 c9 17 21 32 26 32 5 0 4 -9 -2 -19z m-170 -9 c0 -13 -12 -22 -22
-16 -10 6 -1 24 13 24 5 0 9 -4 9 -8z m688 -24 c6 -18 24 -87 42 -153 18 -66
43 -156 56 -200 l24 -81 35 4 c27 3 35 1 35 -12 0 -9 -11 -18 -27 -21 -16 -4
-71 -19 -124 -36 -53 -16 -99 -29 -103 -29 -3 0 -6 9 -6 19 0 13 9 21 30 26
34 8 33 5 20 40 -5 14 -12 36 -14 48 -3 17 -61 232 -92 345 -5 17 -29 15 -48
-3 -13 -13 -15 -13 -21 6 -9 29 -1 35 80 57 98 28 102 27 113 -10z m-628 -2
c0 -2 -8 -2 -19 1 -26 7 -32 -9 -15 -41 19 -37 18 -43 -5 -22 -20 18 -25 67
-8 78 10 6 47 -7 47 -16z m-220 -21 c0 -8 -11 -17 -25 -21 -14 -3 -25 -11 -26
-18 -1 -9 0 -349 1 -393 0 -10 25 -13 89 -13 l88 0 -5 25 c-4 22 -1 25 27 25
30 0 31 -1 31 -45 l0 -45 -163 0 c-89 0 -177 -4 -195 -9 -30 -9 -32 -8 -32 15
0 19 5 24 25 24 l25 0 0 209 c0 191 -6 242 -25 211 -10 -16 -25 -1 -25 26 0
24 0 24 105 24 86 0 105 -3 105 -15z m660 -127 c47 -28 78 -136 48 -166 -8 -8
-48 -12 -115 -12 -113 0 -117 -3 -94 -63 25 -64 92 -88 176 -63 55 17 59 16
51 -12 -16 -49 -146 -65 -239 -29 -51 20 -60 28 -82 71 -42 84 -26 196 35 251
48 43 166 56 220 23z m560 -52 c0 -3 -4 -8 -10 -11 -5 -3 -10 -1 -10 4 0 6 5
11 10 11 6 0 10 -2 10 -4z m-18 -44 c-7 -2 -9 -9 -5 -15 3 -7 2 -8 -2 -4 -16
14 -14 36 3 29 10 -4 12 -7 4 -10z m22 -41 c4 -5 -3 -7 -14 -4 -23 6 -26 13
-6 13 8 0 17 -4 20 -9z m13 -27 c-3 -3 -12 -4 -19 -1 -8 3 -5 6 6 6 11 1 17
-2 13 -5z m-21 -99 c1 -8 -4 -19 -11 -25 -19 -16 -29 5 -11 23 8 8 13 17 11
21 -3 3 -2 4 2 1 4 -3 8 -12 9 -20z m-52 -66 c-45 -50 -197 -105 -317 -115
-74 -7 -82 -9 -111 -41 -39 -43 -85 -54 -151 -37 -45 11 -52 10 -76 -7 -79
-56 -204 -53 -271 8 -14 13 -23 14 -45 4 -33 -13 -129 -11 -110 2 8 6 4 7 -10
4 -13 -3 -26 0 -30 5 -3 7 -1 8 5 4 7 -4 12 -2 12 4 0 6 12 5 34 -4 19 -8 36
-11 38 -6 2 4 17 10 33 12 17 1 37 11 45 21 15 18 16 18 29 -6 8 -15 33 -33
60 -43 82 -32 164 -16 209 41 24 30 27 30 52 5 45 -45 170 -13 170 43 0 21 4
22 98 23 79 1 110 6 172 29 41 15 85 28 97 29 12 0 21 4 20 7 -1 4 9 18 23 31
30 30 52 18 24 -13z m-1419 -57 c61 -25 95 -32 167 -35 9 -1 15 -5 12 -8 -4
-7 -59 -5 -126 5 -39 6 -98 29 -98 39 0 4 -4 5 -10 2 -14 -8 -52 14 -44 26 3
6 11 8 18 5 6 -3 43 -18 81 -34z m269 -41 c4 -5 -3 -7 -14 -4 -23 6 -26 13 -6
13 8 0 17 -4 20 -9z"/>
<path d="M1087 1352 c-31 -33 -37 -54 -7 -27 24 22 27 4 4 -20 -23 -22 -14
-27 12 -6 27 21 47 58 39 71 -10 16 -19 12 -48 -18z"/>
<path d="M1020 1289 c0 -5 5 -7 10 -4 6 3 10 8 10 11 0 2 -4 4 -10 4 -5 0 -10
-5 -10 -11z"/>
<path d="M1050 1260 c0 -5 7 -10 16 -10 8 0 12 5 9 10 -3 6 -10 10 -16 10 -5
0 -9 -4 -9 -10z"/>
<path d="M1279 1195 c-25 -14 -49 -69 -41 -97 4 -15 16 -18 68 -18 l64 0 0 30
c0 40 -24 86 -48 92 -10 3 -30 0 -43 -7z"/>
<path d="M2098 1190 c-9 -22 -15 -40 -13 -40 8 0 36 61 33 70 -2 5 -11 -9 -20
-30z"/>
<path d="M2111 973 c-1 -6 -4 -20 -7 -30 -5 -17 -5 -17 6 0 6 10 9 23 6 30 -3
9 -5 9 -5 0z"/>
<path d="M2081 897 c-13 -21 -12 -21 5 -5 10 10 16 20 13 22 -3 3 -11 -5 -18
-17z"/>
<path d="M2049 853 c-13 -16 -12 -17 4 -4 9 7 17 15 17 17 0 8 -8 3 -21 -13z"/>
<path d="M1995 804 c-18 -16 -22 -22 -9 -15 18 9 53 42 43 41 -2 -1 -17 -12
-34 -26z"/>
<path d="M1939 763 c-13 -16 -12 -17 4 -4 16 13 21 21 13 21 -2 0 -10 -8 -17
-17z"/>
<path d="M1894 744 c-18 -14 -18 -15 4 -4 12 6 22 13 22 15 0 8 -5 6 -26 -11z"/>
<path d="M1740 695 c-25 -7 -36 -13 -25 -13 11 0 38 5 60 13 52 17 24 17 -35
0z"/>
<path d="M488 693 c7 -3 16 -2 19 1 4 3 -2 6 -13 5 -11 0 -14 -3 -6 -6z"/>
<path d="M668 673 c7 -3 16 -2 19 1 4 3 -2 6 -13 5 -11 0 -14 -3 -6 -6z"/>
<path d="M1539 633 c-14 -16 -34 -34 -44 -41 -11 -7 -6 -6 11 2 17 8 39 26 48
40 21 33 17 33 -15 -1z"/>
<path d="M1295 590 c-3 -6 1 -7 9 -4 18 7 21 14 7 14 -6 0 -13 -4 -16 -10z"/>
<path d="M1230 550 c-19 -11 -30 -19 -25 -19 6 0 26 8 45 19 19 11 31 19 25
19 -5 0 -26 -8 -45 -19z"/>
</g>
</svg>
